<?xml version="1.0" standalone="no"?>
<!DOCTYPE svg PUBLIC "-//W3C//DTD SVG 20010904//EN"
 "http://www.w3.org/TR/2001/REC-SVG-20010904/DTD/svg10.dtd">
<svg version="1.0" xmlns="http://www.w3.org/2000/svg"
 width="1200.000000pt" height="1200.000000pt" viewBox="0 0 1200.000000 1200.000000"
 preserveAspectRatio="xMidYMid meet">

<g transform="translate(0.000000,1200.000000) scale(0.100000,-0.100000)"
fill="#000000" stroke="none">
<path d="M2485 6748 c-9 -25 -395 -1182 -395 -1185 0 -2 47 -3 103 -3 l104 0
40 138 40 137 161 3 161 2 21 -72 c12 -40 31 -103 42 -140 l20 -68 104 0 c57
0 104 3 104 8 0 4 -89 273 -199 597 l-199 590 -51 3 c-35 2 -53 -1 -56 -10z
m109 -556 c27 -92 51 -175 54 -184 4 -16 -6 -18 -107 -18 -61 0 -111 3 -111 8
-1 14 105 362 110 362 3 0 27 -76 54 -168z"/>
<path d="M3477 6449 c-127 -19 -265 -117 -321 -227 -85 -168 -70 -372 38 -505
49 -61 131 -119 201 -142 110 -37 265 -29 371 19 59 27 134 83 134 100 -1 6
-25 37 -54 70 l-54 59 -39 -32 c-112 -90 -252 -94 -347 -10 -134 118 -120 367
26 466 91 61 230 53 300 -17 21 -21 38 -47 38 -59 0 -11 4 -21 9 -21 12 0 126
128 126 141 0 5 -18 27 -40 50 -87 90 -236 131 -388 108z"/>
<path d="M4437 6449 c-127 -19 -265 -117 -321 -227 -85 -168 -70 -372 38 -505
49 -61 131 -119 201 -142 110 -37 265 -29 371 19 59 27 134 83 134 100 -1 6
-25 37 -54 70 l-54 59 -39 -32 c-112 -90 -252 -94 -347 -10 -134 118 -120 367
26 466 91 61 230 53 300 -17 21 -21 38 -47 38 -59 0 -11 4 -21 9 -21 12 0 126
128 126 141 0 5 -18 27 -40 50 -87 90 -236 131 -388 108z"/>
<path d="M6478 6446 c-61 -16 -119 -57 -155 -109 l-28 -40 -3 71 -3 72 -109 0
-110 0 0 -440 0 -440 110 0 110 0 0 258 c0 282 6 321 55 385 78 103 277 103
325 0 8 -18 18 -33 22 -33 13 0 100 181 94 195 -9 23 -98 69 -160 82 -74 15
-88 15 -148 -1z"/>
<path d="M7239 6450 c-31 -5 -80 -18 -109 -29 -52 -20 -150 -80 -150 -92 0 -3
24 -32 54 -65 l54 -59 44 32 c58 41 122 57 209 51 84 -6 114 -25 147 -88 38
-75 37 -76 -89 -84 -120 -8 -234 -33 -298 -65 -213 -109 -225 -381 -22 -475
38 -17 65 -21 156 -21 125 1 158 11 224 70 l41 37 0 -51 0 -51 111 0 110 0 -3
324 -3 323 -35 69 c-59 115 -149 166 -315 177 -38 3 -95 1 -126 -3z m273 -515
c-6 -54 -32 -120 -63 -158 -53 -65 -194 -87 -263 -41 -39 25 -52 85 -29 131
37 74 113 103 263 100 l95 -2 -3 -30z"/>
<path d="M8277 6449 c-141 -21 -270 -120 -335 -256 -36 -77 -37 -80 -37 -198
0 -114 2 -123 32 -188 90 -191 299 -290 523 -247 93 18 241 101 240 134 -1 6
-25 37 -54 70 l-54 59 -39 -32 c-112 -90 -252 -94 -347 -10 -134 118 -120 367
26 466 91 61 230 53 300 -17 21 -21 38 -47 38 -59 0 -11 4 -21 9 -21 12 0 126
128 126 141 0 5 -18 27 -40 50 -87 90 -236 131 -388 108z"/>
<path d="M5040 6145 c0 -311 6 -367 46 -446 82 -164 319 -201 455 -70 27 26
51 45 54 43 3 -3 5 -22 5 -43 0 -68 2 -69 107 -69 94 0 95 0 89 23 -3 12 -6
210 -6 440 l0 417 -104 0 -105 0 -3 -288 c-3 -286 -3 -288 -29 -337 -35 -69
-84 -97 -161 -92 -44 2 -64 9 -83 27 -48 45 -55 97 -55 407 l0 283 -105 0
-105 0 0 -295z"/>
<path d="M8850 6432 c0 -9 37 -102 204 -510 l137 -334 -17 -45 c-40 -104 -109
-161 -179 -147 -32 6 -85 46 -85 65 0 28 -25 -1 -60 -71 l-40 -80 52 -30 c141
-80 303 -52 391 67 47 64 59 93 267 663 97 265 130 372 130 415 0 12 -19 15
-95 15 l-94 0 -6 -37 c-21 -138 -160 -557 -176 -532 -4 7 -56 137 -116 290
l-108 279 -102 0 c-57 0 -103 -3 -103 -8z"/>
</g>
</svg>
