<?xml version="1.0" standalone="no"?>
<!DOCTYPE svg PUBLIC "-//W3C//DTD SVG 20010904//EN"
 "http://www.w3.org/TR/2001/REC-SVG-20010904/DTD/svg10.dtd">
<svg version="1.0" xmlns="http://www.w3.org/2000/svg"
 width="1200.000000pt" height="1200.000000pt" viewBox="0 0 1200.000000 1200.000000"
 preserveAspectRatio="xMidYMid meet">

<g transform="translate(0.000000,1200.000000) scale(0.100000,-0.100000)"
fill="#000000" stroke="none">
<path d="M2190 6010 l0 -600 95 0 95 0 0 280 0 280 223 0 222 0 0 85 0 85
-222 0 -223 0 0 150 0 150 275 0 275 0 0 85 0 85 -370 0 -370 0 0 -600z"/>
<path d="M3320 6524 c-85 -46 -155 -87 -154 -91 0 -4 9 -36 19 -69 l18 -62
100 34 c56 19 105 34 109 34 4 0 8 -216 8 -480 l0 -480 105 0 105 0 0 600 0
600 -77 -1 -78 -1 -155 -84z"/>
<path d="M5298 6595 c-65 -18 -128 -56 -172 -106 -51 -56 -66 -96 -66 -177 0
-163 63 -237 302 -356 85 -42 172 -91 193 -108 91 -76 84 -194 -15 -252 -29
-17 -52 -21 -130 -21 -87 0 -101 3 -162 33 -62 30 -85 50 -114 98 -9 15 -18 5
-66 -77 -39 -65 -53 -98 -46 -106 19 -24 106 -73 162 -93 137 -47 334 -45 441
4 145 66 222 214 194 371 -23 129 -82 186 -311 300 -175 87 -215 114 -235 163
-27 65 7 134 80 161 42 16 152 13 195 -5 46 -19 92 -62 92 -85 0 -37 19 -26
85 47 l68 75 -29 31 c-39 40 -102 76 -175 99 -72 22 -218 24 -291 4z"/>
<path d="M6357 6299 c-176 -26 -330 -175 -368 -357 -52 -250 102 -484 349
-533 81 -15 202 -6 274 21 62 23 168 95 168 113 -1 7 -25 38 -55 71 l-54 58
-32 -26 c-148 -125 -347 -88 -420 77 -29 65 -32 190 -5 251 54 128 164 184
301 156 47 -10 68 -21 97 -50 21 -21 38 -47 38 -59 0 -11 4 -21 9 -21 5 0 37
32 71 71 l63 70 -44 45 c-57 58 -145 101 -234 114 -78 11 -78 11 -158 -1z"/>
<path d="M7268 6300 c-112 -19 -237 -108 -291 -208 -76 -140 -76 -344 0 -485
37 -68 130 -150 200 -178 48 -20 76 -23 163 -23 131 0 195 23 275 96 100 91
145 199 145 348 0 145 -44 254 -138 342 -63 59 -133 95 -213 108 -71 11 -74
11 -141 0z m124 -170 c51 -15 94 -53 126 -114 25 -46 27 -61 27 -161 0 -95 -3
-117 -23 -157 -43 -86 -102 -129 -181 -130 -78 0 -135 41 -183 132 -20 39 -23
59 -23 150 0 95 3 110 28 163 50 101 133 143 229 117z"/>
<path d="M8413 6300 c-72 -15 -128 -54 -180 -125 l-22 -30 -1 73 0 72 -110 0
-109 0 1 -440 0 -440 108 0 109 0 3 278 c3 275 3 278 29 327 15 30 42 62 68
80 36 25 53 30 114 33 60 2 79 -1 112 -20 22 -13 47 -37 55 -55 8 -18 18 -33
23 -33 4 0 28 43 55 96 l47 96 -25 20 c-67 56 -189 85 -277 68z"/>
<path d="M9200 6299 c-206 -34 -340 -214 -340 -455 0 -286 193 -462 486 -441
61 4 102 14 141 32 54 25 143 89 143 103 0 4 -25 29 -56 56 l-55 48 -22 -20
c-32 -30 -89 -51 -155 -58 -139 -15 -254 64 -276 189 l-7 37 294 0 c248 0 296
2 300 14 9 22 1 153 -12 209 -14 58 -50 133 -85 175 -75 88 -221 134 -356 111z
m177 -185 c34 -24 73 -98 73 -136 l0 -28 -191 0 -192 0 6 37 c8 49 53 111 97
135 48 26 166 22 207 -8z"/>
</g>
</svg>
