<?xml version="1.0" standalone="no"?>
<!DOCTYPE svg PUBLIC "-//W3C//DTD SVG 20010904//EN"
 "http://www.w3.org/TR/2001/REC-SVG-20010904/DTD/svg10.dtd">
<svg version="1.0" xmlns="http://www.w3.org/2000/svg"
 width="1200.000000pt" height="1200.000000pt" viewBox="0 0 1200.000000 1200.000000"
 preserveAspectRatio="xMidYMid meet">

<g transform="translate(0.000000,1200.000000) scale(0.100000,-0.100000)"
fill="#000000" stroke="none">
<path d="M5844 6650 c-39 -16 -74 -68 -74 -112 0 -106 118 -166 206 -106 39
27 54 56 54 107 0 84 -103 145 -186 111z"/>
<path d="M7764 6650 c-39 -16 -74 -68 -74 -112 0 -106 118 -166 206 -106 39
27 54 56 54 107 0 84 -103 145 -186 111z"/>
<path d="M1680 5940 l0 -600 105 0 105 0 0 250 0 250 123 0 c245 1 369 56 438
196 21 42 24 63 24 149 0 123 -23 181 -96 250 -95 89 -169 105 -481 105 l-218
0 0 -600z m463 406 c71 -14 118 -76 119 -157 0 -68 -28 -117 -82 -146 -38 -20
-57 -23 -167 -23 l-123 0 0 164 c0 147 2 165 17 168 25 5 203 0 236 -6z"/>
<path d="M3118 6226 c-61 -16 -119 -57 -155 -109 l-28 -40 -3 71 -3 72 -109 0
-110 0 0 -440 0 -440 110 0 110 0 0 258 c0 282 6 321 55 385 78 103 277 103
325 0 8 -18 18 -33 22 -33 13 0 100 181 94 195 -9 23 -98 69 -160 82 -74 15
-88 15 -148 -1z"/>
<path d="M3904 6225 c-125 -27 -212 -95 -268 -206 -45 -91 -60 -163 -53 -274
8 -155 62 -264 167 -336 84 -58 145 -74 280 -74 104 1 121 3 174 28 57 26 146
91 146 105 0 4 -25 29 -56 56 l-55 48 -22 -20 c-51 -48 -176 -74 -252 -53 -97
26 -160 92 -180 189 l-7 32 296 0 c163 0 296 1 297 3 19 76 -1 218 -42 307
-73 158 -243 236 -425 195z m193 -181 c34 -24 73 -98 73 -136 l0 -28 -191 0
-192 0 6 36 c9 51 50 110 94 134 52 28 169 24 210 -6z"/>
<path d="M4917 6229 c-140 -20 -269 -119 -335 -256 -36 -76 -37 -80 -37 -193
1 -96 5 -125 24 -173 44 -112 152 -214 266 -252 110 -37 265 -29 371 19 59 27
134 83 134 100 -1 6 -25 37 -54 70 l-54 59 -39 -32 c-112 -90 -252 -94 -347
-10 -134 118 -120 367 26 466 91 61 230 53 300 -17 21 -21 38 -47 38 -59 0
-11 4 -21 9 -21 9 0 123 123 129 139 6 17 -85 95 -143 122 -33 16 -91 33 -130
39 -78 11 -78 11 -158 -1z"/>
<path d="M6786 6229 c-111 -16 -210 -80 -242 -156 -8 -18 -14 -58 -14 -89 0
-122 76 -190 285 -256 167 -52 223 -80 231 -114 19 -75 -44 -118 -171 -118
-128 0 -242 51 -280 125 -9 17 -20 27 -25 23 -4 -5 -29 -46 -54 -92 l-45 -83
27 -25 c44 -39 141 -83 222 -100 102 -22 264 -15 340 14 113 44 180 134 180
243 0 70 -9 96 -51 144 -43 49 -119 85 -272 131 -133 39 -185 65 -197 99 -20
56 43 97 148 97 114 0 204 -37 225 -92 6 -17 14 -30 18 -30 4 0 32 35 63 77
63 87 63 85 -23 137 -96 59 -239 84 -365 65z"/>
<path d="M8708 6230 c-112 -19 -237 -108 -291 -208 -76 -140 -76 -344 0 -485
37 -68 130 -150 200 -178 48 -20 76 -23 163 -23 131 0 195 23 275 96 100 91
145 199 145 348 0 145 -44 254 -138 342 -63 59 -133 95 -213 108 -71 11 -74
11 -141 0z m124 -170 c92 -26 149 -117 156 -251 5 -108 -13 -178 -64 -237 -47
-55 -81 -72 -144 -72 -80 0 -133 38 -181 130 -20 39 -24 60 -24 150 0 95 3
110 28 163 50 101 133 143 229 117z"/>
<path d="M9777 6229 c-56 -13 -95 -36 -149 -86 l-48 -46 0 62 0 61 -105 0
-105 0 0 -440 0 -440 105 0 105 0 0 283 c0 262 2 285 21 327 11 24 28 53 37
63 29 32 92 59 140 59 55 0 89 -23 117 -78 18 -36 20 -63 23 -346 l4 -308 104
0 104 0 0 283 c0 155 -5 311 -10 347 -20 124 -90 222 -177 248 -60 17 -125 22
-166 11z"/>
<path d="M5600 6135 l0 -85 100 0 100 0 0 -270 0 -269 -107 -3 -108 -3 0 -80
0 -80 318 -3 317 -2 0 85 0 85 -100 0 -100 0 0 355 0 355 -210 0 -210 0 0 -85z"/>
<path d="M7520 6135 l0 -85 100 0 100 0 0 -270 0 -269 -107 -3 -108 -3 0 -80
0 -80 318 -3 317 -2 0 85 0 85 -100 0 -100 0 0 355 0 355 -210 0 -210 0 0 -85z"/>
</g>
</svg>
