<?xml version="1.0" standalone="no"?>
<!DOCTYPE svg PUBLIC "-//W3C//DTD SVG 20010904//EN"
 "http://www.w3.org/TR/2001/REC-SVG-20010904/DTD/svg10.dtd">
<svg version="1.0" xmlns="http://www.w3.org/2000/svg"
 width="1200.000000pt" height="1200.000000pt" viewBox="0 0 1200.000000 1200.000000"
 preserveAspectRatio="xMidYMid meet">

<g transform="translate(0.000000,1200.000000) scale(0.100000,-0.100000)"
fill="#000000" stroke="none">
<path d="M7000 6585 l0 -85 120 0 120 0 0 -470 0 -470 -130 0 -130 0 0 -85 0
-85 360 0 360 0 0 85 0 85 -125 0 -125 0 0 555 0 555 -225 0 -225 0 0 -85z"/>
<path d="M7960 6585 l0 -85 120 0 120 0 0 -470 0 -470 -130 0 -130 0 0 -85 0
-85 360 0 360 0 0 85 0 85 -125 0 -125 0 0 555 0 555 -225 0 -225 0 0 -85z"/>
<path d="M3110 5991 l0 -601 105 0 105 0 0 250 0 250 76 0 76 0 121 -250 122
-250 108 0 c59 0 107 2 107 5 0 5 -130 275 -201 417 l-48 96 42 26 c56 32 117
99 147 161 33 67 40 190 15 269 -20 62 -69 126 -125 161 -79 50 -127 57 -397
62 l-253 5 0 -601z m475 399 c97 -32 136 -180 67 -261 -41 -49 -76 -59 -212
-59 l-120 0 0 164 c0 109 4 166 11 168 24 8 222 -1 254 -12z"/>
<path d="M4400 6279 c-217 -36 -352 -231 -337 -489 8 -150 64 -260 167 -331
84 -58 145 -74 280 -74 104 1 121 3 174 28 57 26 146 91 146 105 0 4 -25 29
-56 56 l-55 48 -22 -20 c-32 -30 -89 -51 -155 -58 -139 -15 -254 64 -276 189
l-7 37 294 0 c248 0 296 2 300 14 9 22 1 154 -12 209 -30 129 -117 232 -228
271 -54 19 -149 25 -213 15z m177 -185 c34 -24 73 -98 73 -136 l0 -28 -191 0
-192 0 6 37 c8 49 53 111 97 135 48 26 166 22 207 -8z"/>
<path d="M5397 6279 c-139 -20 -270 -120 -334 -255 -57 -121 -57 -275 1 -399
99 -213 390 -307 623 -201 58 27 133 83 133 100 -1 6 -25 37 -55 70 l-54 58
-32 -26 c-112 -94 -256 -100 -353 -15 -62 55 -89 123 -89 224 0 119 41 200
127 250 90 53 222 41 288 -25 21 -21 38 -47 38 -59 0 -11 4 -21 9 -21 9 0 123
123 129 139 6 17 -85 95 -143 122 -33 16 -91 33 -130 39 -78 11 -78 11 -158
-1z"/>
<path d="M6285 6280 c-97 -14 -205 -60 -247 -107 -16 -18 -15 -21 35 -78 l53
-59 46 32 c59 41 123 56 209 50 84 -6 114 -25 147 -88 38 -76 37 -76 -90 -85
-308 -20 -462 -126 -462 -320 0 -78 14 -114 66 -166 58 -58 108 -74 233 -74
125 1 158 11 224 70 l41 37 0 -51 0 -51 111 0 110 0 -3 324 -3 323 -35 69
c-58 113 -148 165 -310 177 -36 3 -92 1 -125 -3z m267 -485 c8 -9 -12 -106
-29 -140 -26 -51 -65 -85 -117 -100 -66 -20 -112 -19 -163 4 -34 16 -44 27
-54 59 -22 73 30 142 128 168 47 12 224 19 235 9z"/>
</g>
</svg>
